<svg id="Capa_1" data-name="Capa 1" xmlns="http://www.w3.org/2000/svg" viewBox="0 0 465.09 461.88"><defs><style>.cls-1{fill:#81c7d4;}</style></defs><title>clockPrimary</title><g id="Layer_2" data-name="Layer 2"><path class="cls-1" d="M279.6,423.7c-3.8,1-7.7,1.8-11.6,2.5a18.73,18.73,0,0,0-7.4,33.7,18.48,18.48,0,0,0,14.2,3.1c4.6-.9,9.3-1.9,13.9-3a18.71,18.71,0,1,0-9.1-36.3Z" transform="translate(-0.08 -1.72)"/><path class="cls-1" d="M417.9,173a18.5,18.5,0,0,0,7,9.4,18.71,18.71,0,0,0,28.6-21.1c-1.5-4.5-3.1-8.9-4.9-13.3a18.69,18.69,0,1,0-34.7,13.9C415.3,165.5,416.6,169.3,417.9,173Z" transform="translate(-0.08 -1.72)"/><path class="cls-1" d="M340.4,397c-3.3,2.2-6.7,4.3-10.1,6.3a18.78,18.78,0,0,0-6.9,25.5,19.18,19.18,0,0,0,5.4,5.9,18.51,18.51,0,0,0,20.1.9c4.1-2.4,8.1-4.9,12.1-7.5A18.65,18.65,0,1,0,340.4,397Z" transform="translate(-0.08 -1.72)"/><path class="cls-1" d="M465,225.3a18.66,18.66,0,1,0-37.3,1.4c.2,3.9.2,7.9.1,11.9a18.79,18.79,0,0,0,7.9,15.7,18.38,18.38,0,0,0,10.3,3.4,18.74,18.74,0,0,0,19.1-18.3C465.2,234.8,465.2,230,465,225.3Z" transform="translate(-0.08 -1.72)"/><path class="cls-1" d="M414.8,347.8a18.77,18.77,0,0,0-26.2,3.7c-2.4,3.2-4.9,6.3-7.4,9.3a18.8,18.8,0,0,0,2.1,26.4,17.09,17.09,0,0,0,1.4,1.1,18.74,18.74,0,0,0,25-3.2c3.1-3.6,6-7.3,8.9-11.1A18.69,18.69,0,0,0,414.8,347.8Z" transform="translate(-0.08 -1.72)"/><path class="cls-1" d="M442.3,280.2a18.59,18.59,0,0,0-23.4,12.3c-1.2,3.8-2.5,7.5-3.9,11.3a18.67,18.67,0,0,0,6.7,21.9,20.17,20.17,0,0,0,4.1,2.2,18.67,18.67,0,0,0,24.1-10.8c1.7-4.4,3.2-8.9,4.6-13.4A18.6,18.6,0,0,0,442.3,280.2Z" transform="translate(-0.08 -1.72)"/><path class="cls-1" d="M198,426.4a194.56,194.56,0,0,1-48-15.2c-.2-.1-.3-.2-.5-.3-3.6-1.7-7.2-3.5-10.6-5.4h-.1a199,199,0,0,1-18.6-11.6c-88-62-109.1-184-47.1-271.9a194.09,194.09,0,0,1,48-47.7,4.23,4.23,0,0,1,.7-.5C185.9,29.7,272.9,26.7,340.9,72L326.3,93.1c-4.1,5.9-1.6,10.2,5.5,9.5l63.5-5.7c7.1-.6,11.4-6.8,9.5-13.7l-17-61.4c-1.9-6.9-6.8-7.7-10.9-1.8L362.3,41.2a231.2,231.2,0,0,0-169.4-36c-6,1-11.9,2.3-17.7,3.8h-.1c-.2.1-.5.1-.7.2A231.26,231.26,0,0,0,46.5,94.9a8.74,8.74,0,0,0-.8,1c-1.1,1.4-2.1,2.9-3.1,4.4-1.7,2.4-3.3,4.9-4.9,7.3a4.05,4.05,0,0,0-.5.9A231.45,231.45,0,0,0,.3,244.5v.5c.2,4.7.6,9.4,1.1,14.1,0,.3.1.6.1.9.5,4.7,1.2,9.4,2,14.1A230.94,230.94,0,0,0,68.6,399.3l.2.2a.1.1,0,0,1,.1.1,233.87,233.87,0,0,0,122.5,63.7,18.74,18.74,0,0,0,6.6-36.9Z" transform="translate(-0.08 -1.72)"/><path class="cls-1" d="M221.1,83.2A15.09,15.09,0,0,0,206,98.3V249l137.9,71.3a15.62,15.62,0,0,0,6.9,1.7,15.15,15.15,0,0,0,7-28.6L236.3,230.6V98.3A15.24,15.24,0,0,0,221.1,83.2Z" transform="translate(-0.08 -1.72)"/></g></svg>