<?xml version="1.0" encoding="utf-8"?>
<!-- Generator: Adobe Illustrator 21.1.0, SVG Export Plug-In . SVG Version: 6.00 Build 0)  -->
<svg version="1.1" id="Capa_1" xmlns="http://www.w3.org/2000/svg" xmlns:xlink="http://www.w3.org/1999/xlink" x="0px" y="0px"
	 viewBox="0 0 375.6 375.6" style="enable-background:new 0 0 375.6 375.6;" xml:space="preserve">
<style type="text/css">
	.st0{fill:#67D2DE;}
</style>
<g>
	<g>
		<g>
			<path class="st0" d="M41,228.8c-22.6,0-41-18.4-41-41c0-22.6,18.4-41,41-41s41,18.4,41,41C82,210.4,63.6,228.8,41,228.8z"/>
		</g>
		<g>
			<path class="st0" d="M185.5,228.8c-22.6,0-41-18.4-41-41c0-22.6,18.4-41,41-41c22.6,0,41,18.4,41,41
				C226.5,210.4,208.1,228.8,185.5,228.8z"/>
		</g>
		<g>
			<path class="st0" d="M334.6,228.8c-22.6,0-41-18.4-41-41c0-22.6,18.4-41,41-41s41,18.4,41,41
				C375.6,210.4,357.2,228.8,334.6,228.8z"/>
		</g>
	</g>
</g>
</svg>
