<svg id="圖層_1" data-name="圖層 1" xmlns="http://www.w3.org/2000/svg" viewBox="0 0 459.69 509.98"><defs><style>.cls-1{fill:#8acede;}</style></defs><title>paperclip.skyblue</title><path class="cls-1" d="M452.7,314.3,415,276.6,245.3,106.9A80,80,0,0,0,132.2,220L301.9,389.8A17.75,17.75,0,0,0,327,364.7L157.3,194.9A44.48,44.48,0,0,1,220.2,132L390,301.7l37.7,37.7A80,80,0,0,1,314.5,452.6L283,421.2l-176-176L94.4,232.6A115.55,115.55,0,0,1,257.8,69.2L446.4,257.8a17.82,17.82,0,0,0,25.2-25.2L283,44A151.11,151.11,0,0,0,69.3,257.7L257.9,446.3l31.5,31.4A115.53,115.53,0,0,0,452.7,314.3Z" transform="translate(-25.26 0.04)"/></svg>