<svg id="圖層_1" data-name="圖層 1" xmlns="http://www.w3.org/2000/svg" viewBox="0 0 464 464"><defs><style>.cls-1{fill:#fff;}</style></defs><title>setting_white</title><g id="Setting"><path class="cls-1" d="M472,208H428.41a15.66,15.66,0,0,1-14.73-10.17q-2.26-6.15-5-12.06A15.83,15.83,0,0,1,411.94,168l30.7-30.8a15.89,15.89,0,0,0,.17-22.47l-.17-.17-45.2-45.2A15.89,15.89,0,0,0,375,69.19l-.17.17L344,100.06a15.83,15.83,0,0,1-17.8,3.25q-5.86-2.7-12-5A15.84,15.84,0,0,1,304,83.46V40a16,16,0,0,0-16-16H224a16,16,0,0,0-16,16V83.58a15.69,15.69,0,0,1-10.2,14.77c-4.09,1.5-8.1,3.2-12,5a15.83,15.83,0,0,1-17.8-3.27l-30.8-30.7a15.89,15.89,0,0,0-22.47-.17l-.17.17-45.2,45.2A15.89,15.89,0,0,0,69.19,137l.17.17,30.7,30.8a15.83,15.83,0,0,1,3.25,17.8q-2.7,5.86-5,12A15.84,15.84,0,0,1,83.46,208H40a16,16,0,0,0-16,16v64a16,16,0,0,0,16,16H83.5a15.82,15.82,0,0,1,14.88,10.28q2.24,6.09,5,12A15.83,15.83,0,0,1,100.06,344l-30.7,30.8a15.89,15.89,0,0,0-.17,22.47l.17.17,45.2,45.2a15.89,15.89,0,0,0,22.47.17l.17-.17,30.8-30.7a15.83,15.83,0,0,1,17.8-3.25q5.86,2.7,12,5A15.84,15.84,0,0,1,208,428.54V472a16,16,0,0,0,16,16h64a16,16,0,0,0,16-16V428.48a15.74,15.74,0,0,1,10.24-14.82q6.11-2.26,12-5A15.83,15.83,0,0,1,344,411.94l30.8,30.7a15.89,15.89,0,0,0,22.47.17l.17-.17,45.2-45.2a15.89,15.89,0,0,0,.17-22.47l-.17-.17L411.94,344a15.83,15.83,0,0,1-3.25-17.8q2.7-5.86,5-12A15.84,15.84,0,0,1,428.54,304H472a16,16,0,0,0,16-16V224A16,16,0,0,0,472,208ZM256,360A104,104,0,1,1,360,256,104,104,0,0,1,256,360Z" transform="translate(-24 -24)"/><path class="cls-1" d="M472,208H428.41a15.66,15.66,0,0,1-14.73-10.17q-2.26-6.15-5-12.06A15.83,15.83,0,0,1,411.94,168l30.7-30.8a15.89,15.89,0,0,0,.17-22.47l-.17-.17-45.2-45.2A15.89,15.89,0,0,0,375,69.19l-.17.17L344,100.06a15.83,15.83,0,0,1-17.8,3.25q-5.86-2.7-12-5A15.84,15.84,0,0,1,304,83.46V40a16,16,0,0,0-16-16H256V152a104,104,0,0,1,0,208V488h32a16,16,0,0,0,16-16V428.48a15.74,15.74,0,0,1,10.24-14.82q6.11-2.26,12-5A15.83,15.83,0,0,1,344,411.94l30.8,30.7a15.89,15.89,0,0,0,22.47.17l.17-.17,45.2-45.2a15.89,15.89,0,0,0,.17-22.47l-.17-.17L411.94,344a15.83,15.83,0,0,1-3.25-17.8q2.7-5.86,5-12A15.84,15.84,0,0,1,428.54,304H472a16,16,0,0,0,16-16V224A16,16,0,0,0,472,208Z" transform="translate(-24 -24)"/></g></svg>