<svg id="圖層_1" data-name="圖層 1" xmlns="http://www.w3.org/2000/svg" viewBox="0 0 512 512"><defs><style>.cls-1{fill:#666;}</style></defs><title>chat_gray</title><path class="cls-1" d="M512,346.5a166,166,0,0,0-91-147.82C419.27,320.5,320.5,419.27,198.68,421a165.55,165.55,0,0,0,232,68l80.57,22.29L489,430.71A164.91,164.91,0,0,0,512,346.5Z"/><path class="cls-1" d="M391,195.5C391,87.7,303.3,0,195.5,0S0,87.7,0,195.5a194.89,194.89,0,0,0,27.11,99.37L.72,390.28l95.41-26.39A194.89,194.89,0,0,0,195.5,391C303.3,391,391,303.3,391,195.5ZM165.5,150h-30A60,60,0,1,1,236,194.28L210.5,217.61V241h-30V204.39l35.23-32.25A29.69,29.69,0,0,0,225.5,150a30,30,0,0,0-60,0Zm15,121h30v30h-30Z"/><rect class="cls-1" x="106" y="77" width="183" height="247"/></svg>