<svg id="Capa_1" data-name="Capa 1" xmlns="http://www.w3.org/2000/svg" viewBox="0 0 106.06 106.06"><defs><style>.cls-1{fill:#fff;}</style></defs><title>smile_white</title><path class="cls-1" d="M90.55,15.52a53.05,53.05,0,1,0,0,75A53.11,53.11,0,0,0,90.55,15.52ZM84.76,84.76a44.87,44.87,0,1,1,0-63.46A44.92,44.92,0,0,1,84.76,84.76ZM33.24,38.67a6.2,6.2,0,1,1,6.2,6.2A6.2,6.2,0,0,1,33.24,38.67Zm28.12,0a6.2,6.2,0,1,1,6.2,6.2A6.2,6.2,0,0,1,61.36,38.67ZM76,64.07A24.76,24.76,0,0,1,53.09,78.7C42.79,78.7,33.74,72.93,30,64a3,3,0,1,1,5.54-2.3c2.78,6.69,9.65,11,17.52,11a18.76,18.76,0,0,0,17.42-11A3,3,0,0,1,76,64.07Z" transform="translate(0 0)"/></svg>