<svg id="圖層_1" data-name="圖層 1" xmlns="http://www.w3.org/2000/svg" viewBox="0 0 612.01 568.7"><defs><style>.cls-1{fill:#88c6d5;}</style></defs><title>calandar_blue</title><rect class="cls-1" x="200.51" y="179.97" width="81.67" height="81.67"/><rect class="cls-1" x="329.82" y="179.97" width="81.67" height="81.67"/><rect class="cls-1" x="459.13" y="179.97" width="81.67" height="81.67"/><rect class="cls-1" x="71.21" y="302.47" width="81.67" height="81.67"/><rect class="cls-1" x="200.51" y="302.47" width="81.67" height="81.67"/><rect class="cls-1" x="329.82" y="302.47" width="81.67" height="81.67"/><rect class="cls-1" x="459.13" y="302.47" width="81.67" height="81.67"/><rect class="cls-1" x="71.21" y="424.98" width="81.67" height="81.66"/><rect class="cls-1" x="200.51" y="424.98" width="81.67" height="81.66"/><rect class="cls-1" x="329.82" y="424.98" width="81.67" height="81.66"/><path class="cls-1" d="M628.86,211.7H98.53A40.84,40.84,0,0,0,57.7,252.52v96.41h612V252.52A40.84,40.84,0,0,0,628.86,211.7ZM212.06,317.13a30.63,30.63,0,1,1,30.62-30.62A30.63,30.63,0,0,1,212.06,317.13Zm303.28,0A30.63,30.63,0,1,1,546,286.5,30.63,30.63,0,0,1,515.34,317.13Z" transform="translate(-57.7 -211.7)"/><path class="cls-1" d="M642.48,739.57a13.62,13.62,0,0,1-13.61,13.61H98.54a13.63,13.63,0,0,1-13.61-13.61v-351H57.7v351A40.83,40.83,0,0,0,98.54,780.4H628.87a40.84,40.84,0,0,0,40.83-40.83v-351H642.49v351Z" transform="translate(-57.7 -211.7)"/></svg>