<svg id="圖層_1" data-name="圖層 1" xmlns="http://www.w3.org/2000/svg" viewBox="0 0 31.29 47.84"><title>coffee-2</title><path d="M35.6,23.9c-6.9-6.9-16.8-8.3-21.9-3.1s-3.8,15,3.1,21.9S33.6,51,38.7,45.8,42.5,30.9,35.6,23.9Zm.5,18.4a.37.37,0,0,1-.3-.1,17.08,17.08,0,0,0-5-4.3c-1.9-1.1-3.9-2.2-6-3.4A24.59,24.59,0,0,1,19.1,30a10.87,10.87,0,0,1-3-6.8h0a.27.27,0,0,1,.3-.3c.1,0,.2.1.3.2a16.07,16.07,0,0,0,4.3,5,60.37,60.37,0,0,0,5.6,3.7,36.16,36.16,0,0,1,5.8,4.1c1.8,1.6,3.6,3.8,3.9,6.3C36.4,42.1,36.2,42.2,36.1,42.3Z" transform="translate(-10.56 -1.1)" style="fill:#e8be6a"/><path d="M25.4,13.7c-.3,0-1.3-2.8,1-6.3s0-6.3-1-6.3c.5,1.9-1,2.6-3.3,6.1S25.1,13.7,25.4,13.7Z" transform="translate(-10.56 -1.1)" style="fill:#e8be6a"/><path d="M35,18.4c-.2,0,.6-2.2,2.3-4.8a3.57,3.57,0,0,0-.7-4.8c.2,0-.1,1.3-1.8,3.9A5.05,5.05,0,0,0,35,18.4Z" transform="translate(-10.56 -1.1)" style="fill:#e8be6a"/><path d="M30.8,17c-.3,0-.8-4.1,1.7-7.1,3.1-3.7-1.4-8.3-1.7-8.3.3,0,.4,3-1.9,7.3S30.5,17,30.8,17Z" transform="translate(-10.56 -1.1)" style="fill:#e8be6a"/></svg>