<?xml version="1.0" encoding="utf-8"?>
<!-- Generator: Adobe Illustrator 21.0.0, SVG Export Plug-In . SVG Version: 6.00 Build 0)  -->
<svg version="1.1" id="圖層_1" xmlns="http://www.w3.org/2000/svg" xmlns:xlink="http://www.w3.org/1999/xlink" x="0px" y="0px"
	 viewBox="0 0 50 50" style="enable-background:new 0 0 50 50;" xml:space="preserve">
<style type="text/css">
	.st0{fill:#9C9C9C;}
</style>
<g>
	<path class="st0" d="M35.6,23.9c-6.9-6.9-16.8-8.3-21.9-3.1c-5.2,5.2-3.8,15,3.1,21.9c6.9,6.9,16.8,8.3,21.9,3.1
		C43.9,40.7,42.5,30.9,35.6,23.9z M36.1,42.3c-0.1,0-0.2,0-0.3-0.1c-1.4-1.9-3.1-3.1-5-4.3c-1.9-1.1-3.9-2.2-6-3.4
		c-2-1.3-4.1-2.6-5.7-4.5c-1.7-1.8-2.9-4.3-3-6.8v0c0-0.2,0.1-0.3,0.3-0.3c0.1,0,0.2,0.1,0.3,0.2c1.1,2.1,2.6,3.6,4.3,5
		c1.7,1.3,3.6,2.5,5.6,3.7c1.9,1.2,4,2.4,5.8,4.1c1.8,1.6,3.6,3.8,3.9,6.3C36.4,42.1,36.2,42.2,36.1,42.3z"/>
	<g>
		<path class="st0" d="M25.4,13.7c-0.3,0-1.3-2.8,1-6.3c2.3-3.5,0-6.3-1-6.3c0.5,1.9-1,2.6-3.3,6.1C19.9,10.6,25.1,13.7,25.4,13.7z"
			/>
		<path class="st0" d="M35,18.4c-0.2,0,0.6-2.2,2.3-4.8c1.7-2.6-0.5-4.8-0.7-4.8c0.2,0-0.1,1.3-1.8,3.9C33,15.4,34.8,18.4,35,18.4z"
			/>
		<path class="st0" d="M30.8,17c-0.3,0-0.8-4.1,1.7-7.1c3.1-3.7-1.4-8.3-1.7-8.3c0.3,0,0.4,3-1.9,7.3C26.7,13.2,30.5,17,30.8,17z"/>
	</g>
</g>
</svg>
