<?xml version="1.0" encoding="utf-8"?>
<!-- Generator: Adobe Illustrator 16.0.0, SVG Export Plug-In . SVG Version: 6.00 Build 0)  -->
<!DOCTYPE svg PUBLIC "-//W3C//DTD SVG 1.1//EN" "http://www.w3.org/Graphics/SVG/1.1/DTD/svg11.dtd">
<svg version="1.1" id="Layer_1" xmlns="http://www.w3.org/2000/svg" xmlns:xlink="http://www.w3.org/1999/xlink" x="0px" y="0px"
	 width="50px" height="50px" viewBox="0 0 50 50" enable-background="new 0 0 50 50" xml:space="preserve">
<path fill="#9C9C9C" d="M22.757,12.248c-0.22-0.554-0.579-1.063-1.069-1.472c-1.575-1.314-3.915-1.102-5.229,0.472
	c-0.329,0.394-0.562,0.835-0.702,1.297c-1.371-0.154-2.773,0.461-3.559,1.706c-0.273,0.434-0.446,0.903-0.524,1.379
	c-1.379,0.029-2.688,0.825-3.3,2.163C8.16,18.26,8.05,18.749,8.036,19.231c-1.362,0.211-2.554,1.173-2.984,2.582
	c-0.15,0.491-0.193,0.988-0.144,1.468c-1.323,0.391-2.377,1.502-2.617,2.953c-0.093,0.563-0.05,1.115,0.098,1.631
	c-0.009,0.003-0.018,0.007-0.027,0.011c-1.879,0.819-2.737,3.008-1.917,4.888L7.972,50h42.042V31.118L22.757,12.248z M7.288,29.146
	c2.881-6.2,7.779-11.417,13.794-14.69c0.307-0.167,0.688-0.054,0.854,0.252c0.166,0.305,0.054,0.687-0.252,0.854
	c-5.779,3.145-10.486,8.159-13.254,14.115c-0.106,0.229-0.334,0.365-0.572,0.365c-0.089,0-0.179-0.021-0.265-0.06
	C7.278,29.838,7.142,29.463,7.288,29.146z M47.777,47.639H10.046L4.038,34.357h43.739V47.639z M13.256,40.037
	c0,0.512-0.416,0.928-0.928,0.928l0,0c-0.514,0-0.929-0.416-0.929-0.928l0,0c0-0.514,0.416-0.93,0.929-0.93l0,0
	C12.841,39.107,13.256,39.523,13.256,40.037L13.256,40.037z M26.9,43.299c0,0.514-0.416,0.93-0.928,0.93l0,0
	c-0.514,0-0.929-0.416-0.929-0.93l0,0c0-0.512,0.416-0.928,0.929-0.928l0,0C26.484,42.371,26.9,42.787,26.9,43.299L26.9,43.299z
	 M22.058,38.412c0,0.385-0.312,0.697-0.696,0.697l0,0c-0.384,0-0.696-0.313-0.696-0.697l0,0c0-0.385,0.313-0.695,0.696-0.695l0,0
	C21.746,37.717,22.058,38.027,22.058,38.412L22.058,38.412z M17.739,43.15c0,0.309-0.25,0.559-0.557,0.559l0,0
	c-0.308,0-0.558-0.25-0.558-0.559l0,0c0-0.308,0.25-0.558,0.558-0.558l0,0C17.49,42.594,17.739,42.844,17.739,43.15L17.739,43.15z
	 M37.682,40.617c0,0.309-0.25,0.557-0.558,0.557l0,0c-0.308,0-0.558-0.248-0.558-0.557l0,0c0-0.307,0.25-0.557,0.558-0.557l0,0
	C37.432,40.061,37.682,40.311,37.682,40.617L37.682,40.617z M34.189,43.564c0,0.383-0.313,0.694-0.697,0.694l0,0
	c-0.385,0-0.696-0.313-0.696-0.694l0,0c0-0.385,0.312-0.697,0.696-0.697l0,0C33.877,42.867,34.189,43.18,34.189,43.564
	L34.189,43.564z M31.764,38.379c0,0.4-0.324,0.725-0.726,0.725l0,0c-0.399,0-0.728-0.324-0.728-0.725l0,0
	c0-0.4,0.326-0.727,0.728-0.727l0,0C31.438,37.652,31.764,37.979,31.764,38.379L31.764,38.379z M44.175,39.357
	c0,0.514-0.415,0.928-0.929,0.928l0,0c-0.514,0-0.93-0.414-0.93-0.928l0,0c0-0.515,0.416-0.931,0.93-0.931l0,0
	C43.76,38.428,44.175,38.844,44.175,39.357L44.175,39.357z"/>
</svg>
