<?xml version="1.0" encoding="utf-8"?>
<!-- Generator: Adobe Illustrator 21.0.0, SVG Export Plug-In . SVG Version: 6.00 Build 0)  -->
<svg version="1.1" id="圖層_1" xmlns="http://www.w3.org/2000/svg" xmlns:xlink="http://www.w3.org/1999/xlink" x="0px" y="0px"
	 viewBox="0 0 50 50" style="enable-background:new 0 0 50 50;" xml:space="preserve">
<style type="text/css">
	.st0{fill:#9C9C9C;}
</style>
<path class="st0" d="M39.1,15.8c-0.2-0.7-0.5-1.4-0.8-2.1c-0.3-1-0.2-1.5,0-2.3c0.3-1.6,0.1-2.7-0.9-3.7c-0.7-0.7-1.5-1-2.5-1
	c-0.4,0-0.7,0-1.2,0.1C33.4,6.9,33,7,32.6,7c-0.3,0-0.7,0-1.1-0.2c-2.1-1-4.5-1.5-6.9-1.5c-5.6,0-11.7,2.5-16.5,7.3
	C1.2,19.6-1,29.2,2.3,36.1c0.3,1,0.1,1.5,0,2.2C2,39.9,2.2,41.1,3.2,42c0.7,0.7,1.5,1,2.5,1c0.4,0,0.7,0,1.2-0.1
	c0.4-0.1,0.8-0.1,1.2-0.1c0.3,0,0.7,0,1.1,0.2c2.1,1,4.5,1.5,7,1.5c3.3,0,6.7-0.9,10-2.6c2.4,1.6,5.2,2.6,8.3,2.6
	c8.1,0,14.7-6.6,14.7-14.7C49,23.3,44.9,17.8,39.1,15.8z M39,20.6c0.3-0.5,0.9-0.7,1.4-0.4c0,0,1,0.6,1.9,1.5
	c0.8,0.8,1.5,1.9,1.5,1.9c0.3,0.5,0.1,1.1-0.4,1.4l-7.4,3.6c-0.5,0.3-0.8,0-0.5-0.5L39,20.6z M34.3,18.3c1.2,0,2.4,0.3,2.4,0.3
	c0.6,0.1,0.9,0.7,0.7,1.3l-2.7,7.8c-0.2,0.6-0.5,0.6-0.7,0l-2.7-7.8c-0.2-0.6,0.1-1.1,0.7-1.3C31.9,18.6,33.1,18.3,34.3,18.3z
	 M32.6,28.5l-7.4-3.6c-0.5-0.3-0.7-0.9-0.4-1.4c0,0,0.6-1,1.5-1.9c0.8-0.8,1.9-1.5,1.9-1.5c0.5-0.3,1.1-0.1,1.4,0.4l3.6,7.4
	C33.4,28.6,33.2,28.8,32.6,28.5z M5.2,32.9c-1.6-5.5,0.5-12.4,5.7-17.5c3.9-3.9,9-6.2,13.8-6.2c1.6,0,3,0.3,4.4,0.7
	c1.7,0.9,4.2,2.3,4.5,5.1c-7.7,0.4-13.9,6.8-13.9,14.7c0,1.1,0.1,2.2,0.4,3.3C16,37.6,7,37.2,5.2,32.9z M23.2,32.1
	c0,0-0.3-1.2-0.3-2.4c0-1.2,0.3-2.4,0.3-2.4c0.1-0.6,0.7-0.9,1.3-0.7l7.8,2.7c0.6,0.2,0.6,0.5,0,0.7l-7.8,2.7
	C23.9,33,23.4,32.7,23.2,32.1z M28.2,39.2c0,0-1-0.6-1.9-1.5c-0.8-0.9-1.5-1.9-1.5-1.9c-0.3-0.5-0.1-1.1,0.4-1.4l7.4-3.6
	c0.5-0.3,0.8,0,0.5,0.5l-3.6,7.4C29.3,39.3,28.7,39.5,28.2,39.2z M36.7,40.7c0,0-1.2,0.3-2.4,0.3c-1.2,0-2.4-0.3-2.4-0.3
	c-0.6-0.1-0.9-0.7-0.7-1.3l2.7-7.8c0.2-0.6,0.5-0.6,0.7,0l2.7,7.8C37.6,40,37.3,40.6,36.7,40.7z M43.8,35.8c0,0-0.6,1-1.5,1.9
	c-0.8,0.8-1.9,1.5-1.9,1.5c-0.5,0.3-1.1,0.1-1.4-0.4l-3.6-7.5c-0.3-0.5,0-0.8,0.5-0.5l7.5,3.6C43.9,34.7,44.1,35.3,43.8,35.8z
	 M44.1,32.8L36.3,30c-0.6-0.2-0.6-0.5,0-0.7l7.8-2.7c0.6-0.2,1.1,0.1,1.3,0.7c0,0,0.3,1.2,0.3,2.4c0,1.2-0.3,2.4-0.3,2.4
	C45.2,32.7,44.6,33,44.1,32.8z"/>
</svg>
