<?xml version="1.0" encoding="utf-8"?>
<!-- Generator: Adobe Illustrator 16.0.0, SVG Export Plug-In . SVG Version: 6.00 Build 0)  -->
<!DOCTYPE svg PUBLIC "-//W3C//DTD SVG 1.1//EN" "http://www.w3.org/Graphics/SVG/1.1/DTD/svg11.dtd">
<svg version="1.1" id="Shapes" xmlns="http://www.w3.org/2000/svg" xmlns:xlink="http://www.w3.org/1999/xlink" x="0px" y="0px"
	 width="50px" height="50px" viewBox="0 0 50 50" enable-background="new 0 0 50 50" xml:space="preserve">
<g>
	<path fill="#9C9C9C" d="M49.832,40.475c-0.262-0.401-0.705-0.646-1.184-0.646H1.406c-0.479,0-0.925,0.243-1.183,0.646
		c-0.26,0.402-0.294,0.909-0.096,1.344l2.628,5.74C3.437,49.047,4.922,50,6.559,50h36.936c1.635,0,3.122-0.953,3.804-2.441
		l2.626-5.74C50.126,41.384,50.09,40.877,49.832,40.475z"/>
	<path fill="#9C9C9C" d="M47.299,36.949c-0.123-0.361-0.287-0.709-0.503-1.038c-0.371-0.574-0.854-1.056-1.412-1.423
		c-0.157-0.641-0.421-1.26-0.796-1.836c-1.102-1.703-3.005-2.762-4.97-2.762c-0.427,0-0.841,0.049-1.243,0.145
		c-0.208-0.461-0.471-0.906-0.787-1.326c-1.391-1.85-3.686-2.997-5.988-2.997c-1.718,0-3.281,0.601-4.541,1.688
		c-0.248-0.035-0.498-0.055-0.752-0.055c-0.039,0-0.08,0.002-0.121,0.002c-1.4-1.561-3.354-2.49-5.485-2.49
		c-2.224,0-4.187,0.992-5.51,2.631c-0.341,0.047-0.673,0.129-0.989,0.243c-0.529-0.145-1.083-0.219-1.653-0.219
		c-1.81,0-3.565,0.754-4.815,2.072c-0.449,0.471-0.819,1.002-1.105,1.574c-0.796,0.398-1.472,1.031-1.918,1.839
		c-0.003,0.007-0.006,0.013-0.011,0.021c-0.464,0.293-0.926,0.662-1.339,1.138C2.881,34.71,2.242,35.691,2.074,37.1h3.48
		c0.307-0.978,1.268-1.418,2.148-1.707c-0.343-0.547,0.232-1.281,0.927-1.281c0.239,0,0.492,0.087,0.726,0.298
		c-0.115-2.194,1.59-3.474,3.194-3.474c0.779,0,1.532,0.301,2.045,0.94c0.114-0.681,0.693-1.007,1.243-1.007
		c0.567,0,1.105,0.346,1.078,1.007c0.351-2.386,2.042-3.597,3.785-3.597c1.669,0,3.386,1.107,4.021,3.351
		c0.43-0.606,1.024-0.86,1.585-0.86c0.773,0,1.489,0.478,1.648,1.176c0.813-2.018,2.245-2.809,3.645-2.809
		c2.282,0,4.479,2.1,3.812,4.428c0.271-0.303,0.641-0.455,1.012-0.455c0.634,0,1.271,0.438,1.415,1.3
		c0.439-0.769,1.105-1.095,1.781-1.095c1.503,0,3.051,1.621,2.314,3.636L47.299,36.949L47.299,36.949z"/>
	<circle fill="#9C9C9C" cx="12.403" cy="34.086" r="1.41"/>
	<circle fill="#9C9C9C" cx="15.998" cy="35.229" r="1.115"/>
	<circle fill="#9C9C9C" cx="14.162" cy="37.099" r="0.72"/>
	<circle fill="#9C9C9C" cx="31.709" cy="32.734" r="1.652"/>
	<circle fill="#9C9C9C" cx="33.752" cy="36.345" r="0.868"/>
</g>
</svg>
