<?xml version="1.0" encoding="utf-8"?>
<!-- Generator: Adobe Illustrator 16.0.0, SVG Export Plug-In . SVG Version: 6.00 Build 0)  -->
<!DOCTYPE svg PUBLIC "-//W3C//DTD SVG 1.1//EN" "http://www.w3.org/Graphics/SVG/1.1/DTD/svg11.dtd">
<svg version="1.1" id="分離模式" xmlns="http://www.w3.org/2000/svg" xmlns:xlink="http://www.w3.org/1999/xlink" x="0px"
	 y="0px" width="50px" height="50px" viewBox="0 0 50 50" enable-background="new 0 0 50 50" xml:space="preserve">
<g id="FRENCH_FRIES">
	<path id="box_1_" fill="#9C9C9C" d="M41.684,27.573c-0.122-0.168-3.186-4.145-16.684-4.145c-13.497,0-16.559,3.977-16.683,4.145
		c-0.11,0.15-0.149,0.338-0.113,0.52l4.556,21.394c0.064,0.3,0.33,0.514,0.636,0.514h23.207c0.309,0,0.574-0.214,0.639-0.514
		l4.554-21.395C41.833,27.913,41.795,27.724,41.684,27.573z M15.185,47.256c-0.055,0.013-0.11,0.018-0.164,0.018
		c-0.359,0-0.684-0.252-0.763-0.619l-3.596-16.889c-0.089-0.42,0.179-0.835,0.602-0.925c0.421-0.089,0.835,0.18,0.924,0.6
		l3.597,16.891C15.875,46.753,15.605,47.167,15.185,47.256z"/>
	<path id="french_fries_1_" fill="#9C9C9C" d="M44.839,11.058c-0.101-0.179-0.273-0.311-0.474-0.366l-4.949-1.351
		c-0.2-0.055-0.414-0.027-0.594,0.074c-0.179,0.102-0.313,0.273-0.366,0.473l-1.435,5.25l0.322,0.146l-2.959-1.344
		c-0.389-0.179-0.852-0.006-1.029,0.387l-1.648,3.613l0.761-9.396c0.017-0.207-0.052-0.41-0.185-0.568
		c-0.134-0.158-0.324-0.256-0.53-0.273l-5.117-0.412c-0.429-0.035-0.805,0.285-0.84,0.715l-0.803,9.965l-1.385-5.477
		c-0.106-0.418-0.53-0.671-0.947-0.565l-2.69,0.681l1.453-0.368l0.3-3.698c0.016-0.207-0.051-0.41-0.184-0.568
		c-0.135-0.158-0.327-0.256-0.533-0.273L15.89,7.291c-0.428-0.035-0.805,0.285-0.839,0.715l-0.824,10.208l-2.783-8.252
		c-0.066-0.195-0.208-0.357-0.393-0.449c-0.187-0.091-0.401-0.106-0.596-0.039l-4.864,1.639C5.182,11.25,4.964,11.694,5.1,12.102
		l4.79,14.205c0.38-0.229,0.845-0.474,1.404-0.719L6.829,12.342l3.386-1.142l3.692,10.958L13.7,24.732
		c0.49-0.14,1.022-0.275,1.598-0.402l1.244-15.42l3.563,0.287l-0.278,3.45l-2.143,0.542c-0.2,0.051-0.372,0.178-0.478,0.357
		c-0.107,0.178-0.139,0.389-0.087,0.59l1.961,7.76l-0.147,1.847c0.682-0.076,1.408-0.141,2.176-0.191l-2.286-9.041l3.464-0.876
		l2.478,9.797c0.079,0,0.158-0.001,0.236-0.001c0.474,0,0.93,0.006,1.376,0.015l-0.197-0.779L27.29,8.91l3.562,0.287l-1.044,12.927
		l-0.658,1.445c0.578,0.041,1.123,0.089,1.651,0.145l3.651-8.03l3.254,1.479l-3.238,7.116c0.564,0.121,1.089,0.247,1.574,0.382
		l0.053-0.189l3.354-7.374c0.088-0.188,0.092-0.402,0.018-0.596c-0.071-0.194-0.217-0.351-0.408-0.436l-0.596-0.272l1.295-4.741
		l3.446,0.941l-3.799,13.923c0.591,0.301,1.048,0.59,1.39,0.841l4.121-15.105C44.968,11.452,44.942,11.238,44.839,11.058z"/>
</g>
</svg>
