<?xml version="1.0" encoding="utf-8"?>
<!-- Generator: Adobe Illustrator 21.0.0, SVG Export Plug-In . SVG Version: 6.00 Build 0)  -->
<svg version="1.1" id="圖層_1" xmlns="http://www.w3.org/2000/svg" xmlns:xlink="http://www.w3.org/1999/xlink" x="0px" y="0px"
	 viewBox="0 0 50 50" style="enable-background:new 0 0 50 50;" xml:space="preserve">
<style type="text/css">
	.st0{fill:#9C9C9C;}
</style>
<path class="st0" d="M39.6,10.8l-6.5-4.1l0.6-2.1l-1.4-0.4l-0.6,2c-2.9,0-7.2,0.1-7.6,0c-0.4-0.1-0.8,0.2-0.8,0.6
	c-0.1,0.4,0.1,0.8,0.5,0.9l7,2L30,12.5H19.1L15.7,1l-2.2,0.6l3.3,10.9h-0.7c-0.3,0-0.6,0.1-0.8,0.3c-0.2,0.2-0.3,0.5-0.3,0.8l1,33.2
	c0,0.6,0.5,1.1,1.1,1.1h14c0.6,0,1.1-0.5,1.1-1.1l1-33.2c0-0.3-0.1-0.6-0.3-0.8c-0.2-0.2-0.5-0.3-0.8-0.3h-0.5l0.6-2.3l6.8,1.9
	c0.1,0,0.1,0,0.2,0c0.3,0,0.6-0.2,0.7-0.4C40.1,11.4,40,11,39.6,10.8z M18.2,45.8l-0.9-31H31l-0.1,2h-5.7L25,16.5
	c-0.9-0.9-2.3-0.9-3.1,0l-0.2,0.2h-2.9l1,27.2h10.2L30,45.8H18.2z M24.5,36.9c-0.2,0-0.5,0-0.7-0.2L22.2,35c-0.3-0.3-0.3-0.8,0-1.1
	l1.7-1.7c0.2-0.2,0.3-0.2,0.5-0.2c0.2,0,0.4,0.1,0.5,0.2l1.7,1.7c0.1,0.1,0.2,0.3,0.2,0.5c0,0.2-0.1,0.4-0.2,0.5L25,36.7
	c0,0-0.1,0.1-0.2,0.1C24.7,36.8,24.6,36.9,24.5,36.9z M27.4,27v2.5c0,0.4-0.4,0.8-0.8,0.8h-2.5c-0.4,0-0.8-0.4-0.8-0.8V27
	c0-0.4,0.4-0.8,0.8-0.8h2.5C27.1,26.2,27.4,26.6,27.4,27z M28,25.2c-0.1-0.1-0.3-0.2-0.4-0.2L26,23.4c-0.1-0.1-0.2-0.3-0.2-0.5
	c0-0.2,0.1-0.4,0.2-0.5l1.7-1.7c0.2-0.2,0.3-0.2,0.5-0.2c0.2,0,0.4,0.1,0.5,0.2l1.7,1.7c0.3,0.3,0.3,0.8,0,1.1L28.7,25
	C28.5,25.2,28.3,25.3,28,25.2z M24.6,39c0-0.4,0.4-0.8,0.8-0.8h2.5c0.4,0,0.8,0.4,0.8,0.8v2.5c0,0.4-0.4,0.8-0.8,0.8h-2.5
	c-0.4,0-0.8-0.4-0.8-0.8V39z M25.7,19.2c0.1,0.1,0.2,0.3,0.2,0.5c0,0.2-0.1,0.4-0.2,0.5L24,22c-0.3,0.3-0.8,0.3-1.1,0l-1.7-1.7
	C21.1,20.1,21,20,21,19.7c0-0.2,0.1-0.4,0.2-0.5l1.7-1.7c0.1-0.1,0.3-0.2,0.5-0.2s0.4,0.1,0.5,0.2L25.7,19.2z"/>
</svg>
