<?xml version="1.0" encoding="utf-8"?>
<!-- Generator: Adobe Illustrator 21.0.0, SVG Export Plug-In . SVG Version: 6.00 Build 0)  -->
<svg version="1.1" id="圖層_1" xmlns="http://www.w3.org/2000/svg" xmlns:xlink="http://www.w3.org/1999/xlink" x="0px" y="0px"
	 viewBox="0 0 50 50" style="enable-background:new 0 0 50 50;" xml:space="preserve">
<style type="text/css">
	.st0{fill:#9C9C9C;}
</style>
<g>
	<path class="st0" d="M23,18.1c1.2,0.7,0-1.6,1.8-4.4c1.8-2.7,0.2-5.2-0.8-5.7c0.4,1.6-1.1,2.5-1.9,4.5C21,15.1,21.6,17.4,23,18.1z"
		/>
	<path class="st0" d="M18.6,16.7c1.4-0.4-0.1-3.4,1.8-6.2c2.8-4.1-0.1-8.8-2.2-9.9c0.4,3.8-1.1,3.2-3.4,7.6
		C12.4,12.5,17.2,17.1,18.6,16.7z"/>
</g>
<g>
	<path class="st0" d="M20.4,32.8c-3.6,0-9.5,0.5-10.1,2.6c1.8,6.6,5,9,6.2,9h7.9c1.1,0,4.3-2.4,6.2-9C29.9,33.2,24,32.8,20.4,32.8z"
		/>
	<path class="st0" d="M40.6,27.6c-0.9,0-1.7,0.2-2.4,0.5c-0.8,0.1-1.2-0.3-1.4-1c0-0.7,0.1-1.4,0.1-2.1c0-4.1-10.3-5-16.5-5
		s-16.5,0.8-16.5,5c0,16.5,7,24.6,12.5,24.6c0.3,0,7.6,0,7.9,0c3.1,0,6.8-2.5,9.1-7.4c1.1-2.5,2.1-2.5,3.5-1.8
		c1.1,0.7,2.3,1.1,3.6,1.1c3.8,0,6.9-3.1,6.9-6.9C47.4,30.7,44.3,27.6,40.6,27.6z M8,24.3c1.9-0.8,6.1-1.6,12.4-1.6
		c6.2,0,10.4,0.8,12.3,1.5c0.6,0.3,0.6,0.6,0,0.9c-1.9,0.7-6.1,1.5-12.3,1.5C14,26.6,9.9,25.8,8,25.1C7.3,24.8,7.3,24.6,8,24.3z
		 M24.3,46.9h-7.9c-3,0-8.4-5-9.6-16.8c0-1.3,0.5-2.2,1.6-2.1c3.4,1,8.4,1.3,12,1.3c3.6,0,8.5-0.3,12-1.3c1-0.1,1.6,0.6,1.6,1.8
		C32.8,41.8,27.4,46.9,24.3,46.9z M40.6,37c-1.4,0-2.5-1.1-2.5-2.5c0-1.4,1.1-2.5,2.5-2.5c1.4,0,2.5,1.1,2.5,2.5
		C43,35.9,41.9,37,40.6,37z"/>
</g>
</svg>
