<svg id="圖層_1" data-name="圖層 1" xmlns="http://www.w3.org/2000/svg" viewBox="0 0 119.16 110.46"><defs><style>.cls-1{fill:#666;}</style></defs><title>select</title><path class="cls-1" d="M276.41,225.55a6,6,0,0,0-8.48,0L214.08,279.4l-24.81-24.8a6,6,0,0,0-8.78,8.18l.3.3,29,29a6,6,0,0,0,8.48,0L276.41,234a6,6,0,0,0,0-8.48Z" transform="translate(-159 -216)"/><path class="cls-1" d="M263.46,264a6,6,0,0,0-6,6v44.46H171V228h68.46a6,6,0,0,0,0-12H165a6,6,0,0,0-6,6h0v98.46a6,6,0,0,0,6,6h98.46a6,6,0,0,0,6-6V270A6,6,0,0,0,263.46,264Z" transform="translate(-159 -216)"/></svg>