<?xml version="1.0" encoding="utf-8"?>
<!-- Generator: Adobe Illustrator 21.1.0, SVG Export Plug-In . SVG Version: 6.00 Build 0)  -->
<svg version="1.1" id="Capa_1" xmlns="http://www.w3.org/2000/svg" xmlns:xlink="http://www.w3.org/1999/xlink" x="0px" y="0px"
	 viewBox="0 0 149 149" style="enable-background:new 0 0 149 149;" xml:space="preserve">
<style type="text/css">
	.st0{fill:#FFFFFF;}
</style>
<g>
	<path class="st0" d="M146.8,17.4c-2.9-2.9-7.7-2.9-10.6,0L68.9,84.7l-31-31c-2.9-2.9-7.7-2.9-10.6,0c-2.9,2.9-2.9,7.7,0,10.6
		l36.3,36.3c1.4,1.4,3.3,2.2,5.3,2.2c2,0,3.9-0.8,5.3-2.2L146.8,28C149.7,25.1,149.7,20.3,146.8,17.4z"/>
	<path class="st0" d="M130.6,65.4c-4.1,0-7.5,3.4-7.5,7.5v55.6H15V20.4h85.6c4.1,0,7.5-3.4,7.5-7.5c0-4.1-3.4-7.5-7.5-7.5H7.5
		C3.4,5.4,0,8.8,0,12.9V136c0,4.1,3.4,7.5,7.5,7.5h123.1c4.1,0,7.5-3.4,7.5-7.5V72.9C138.1,68.8,134.7,65.4,130.6,65.4z"/>
</g>
</svg>
