<svg id="Layer_1" data-name="Layer 1" xmlns="http://www.w3.org/2000/svg" viewBox="0 0 286.05 286.05"><defs><style>.cls-1{fill:#81c7d4;}</style></defs><title>checked_member</title><path class="cls-1" d="M143,0A143,143,0,1,0,286,143,143,143,0,0,0,143,0Zm0,259.24A116.21,116.21,0,1,1,259.23,143,116.21,116.21,0,0,1,143,259.24Zm56.21-177A12.45,12.45,0,0,0,181.9,87l-48,86.15-26.71-32.51c-4.84-5.57-11.26-8.46-17.33-4.83s-8.59,12.39-4.66,18l37.17,45.24c2.78,3.61,6,5.77,9.27,6.39l0,.05.34,0c.75.12,12,2.19,16.82-6.46l55-98.88A13.47,13.47,0,0,0,199.24,82.19Z" transform="translate(0)"/></svg>