<svg id="logo" xmlns="http://www.w3.org/2000/svg" xmlns:xlink="http://www.w3.org/1999/xlink" viewBox="0 0 180.86 108.23"><defs><clipPath id="clip-path" transform="translate(-227.94 -8.05)"><circle cx="313.95" cy="44.37" r="28.49" style="fill:none"/></clipPath></defs><title>logo</title><g style="clip-path:url(#clip-path)"><path d="M334.72,18.64A36.36,36.36,0,0,0,310.43,8.08a41.84,41.84,0,0,0-16.9,3c-2.54,1-5.78,2.21-8,4-1.64,1.39-1.85,1.09-.76,2.71.72,1.07,2.49,1.85,3.73,2.57,7.38.74,20.47,16.86,22.21,23.27A12.94,12.94,0,0,1,293,58.85a18.35,18.35,0,0,0,12.64,6.83c6.67.85,14-1.74,19.34-6.8a17.56,17.56,0,0,0,4.91-7.58,12.18,12.18,0,0,0-.3-8.86c2.56,5.23.86,12.45-3.24,17.33a26.63,26.63,0,0,1-16.5,8.72,25.61,25.61,0,0,0,14.76-3.64c5.36-3.09,9.91-8.49,11.08-14.61,1.05-5.52-.83-11.08-3.41-15.43-3.44-6.07-7-9.81-11.56-11.92,6.77,2.58,13.58,8.43,16.59,15.54,5.48,13-4.49,25.9-17.2,30.31-6.21,2.16-12,2.06-17.83,1.59,4.5,1.78,11.47,2.18,18.4.45,13-3.23,23.29-14.91,23.58-28.88A32.3,32.3,0,0,0,334.72,18.64Z" transform="translate(-227.94 -8.05)" style="fill:#b99959"/><path d="M330.39,32.18A23.61,23.61,0,0,0,299,20.85a24,24,0,0,0-11.15,10.4,9.22,9.22,0,0,1,2.46-1.68c6-2.73,13.68,1.38,17.25,9.19s1.65,16.34-4.3,19.06S289.56,56.44,286,48.64c-.16-.36-.31-.72-.45-1.08A23.06,23.06,0,0,0,287.06,52a23.84,23.84,0,0,0,43.33-19.86Z" transform="translate(-227.94 -8.05)" style="fill:#b99959"/><path d="M287.83,31.25c-3.73,3.49-4.75,10-2.29,16.31A23.33,23.33,0,0,1,287.83,31.25Z" transform="translate(-227.94 -8.05)" style="fill:#fff"/><path d="M289.14,30C293.56,35,302,42.34,300,49.78a33.74,33.74,0,0,0,1.34-3.44c-1,1.33-1.05,3.27-2,4.59,3.91-4.24,2.94-9.25-.05-13.88A92.12,92.12,0,0,0,290.23,26c.44.49-1.58,3.54-1.09,4.08Z" transform="translate(-227.94 -8.05)" style="fill:#b99959"/></g><path d="M357.75,40.1h-8.09a36.29,36.29,0,1,0,0,8.53h8.09a2.93,2.93,0,0,0,2.92-2.92V43A2.93,2.93,0,0,0,357.75,40.1Zm-44.12,37A32.78,32.78,0,1,1,346.4,44.37,32.81,32.81,0,0,1,313.62,77.14Z" transform="translate(-227.94 -8.05)" style="fill:#b99959"/><path d="M233.08,116.15l-1.37-1.24a9.13,9.13,0,0,0,2.4-6.33v-6a33.5,33.5,0,0,1-5,5L227.94,106a28.42,28.42,0,0,0,7.51-8.88h-6.84V95.31h7.69a28.8,28.8,0,0,0,1.14-3l1.88.21c-.28,1-.62,1.91-1,2.81h12.83V97.1H237.57q-.77,1.55-1.7,3h12v13.81c0,1.39-.77,2.09-2.27,2.09h-2.71l-.44-1.68c.93.05,1.81.08,2.61.08s1-.39,1-1.11v-2.76H235.68A10.67,10.67,0,0,1,233.08,116.15Zm2.76-7.67c0,.16,0,.28,0,.44h10.3v-2.74H235.84Zm10.28-6.74H235.84v2.81h10.28Z" transform="translate(-227.94 -8.05)" style="fill:#b99959"/><path d="M256.67,111.22a20.38,20.38,0,0,1-.88,5.06l-1.52-.46a17.24,17.24,0,0,0,1-4.75Zm2.71-6.69v-2h-4.26V93.4H265.4v9.17H261v2h4.21V106H261v2.09c1.78-.13,3.36-.28,4.7-.46v1.5c-2.48.36-6.12.67-11,.93l-.21-1.65c1.76-.05,3.36-.13,4.83-.21V106h-4v-1.5Zm.16-9.68h-2.92v6.27h2.92Zm-.52,5-1,.28a23.64,23.64,0,0,0-.93-3.41l1-.34A34.55,34.55,0,0,1,259,99.81Zm.62,15.78-1.58.18c0-1.91-.1-3.41-.21-4.44l1.45-.16A39.68,39.68,0,0,1,259.64,115.58Zm3.46-.72-1.47.41c-.26-1.42-.57-2.79-.93-4.08l1.34-.44A36,36,0,0,1,263.1,114.86Zm.8-20h-3v6.27h3Zm-.57,1.5a18.48,18.48,0,0,1-.83,3.77l-1-.34a18.08,18.08,0,0,0,.8-3.67ZM266.2,114l-1.42.52a33.46,33.46,0,0,0-1.39-3.9l1.32-.33A28.59,28.59,0,0,1,266.2,114Zm6-21.4v4.78h5.55V99h-5.55v4.67h4.52v12.24h-1.75v-1.19h-6.07V116H267.1V103.71h3.3V92.58Zm2.76,20.47v-7.67h-6.07v7.67Z" transform="translate(-227.94 -8.05)" style="fill:#b99959"/><path d="M303.82,111v1.34h-5.89a34.73,34.73,0,0,1,4.72,2.79l-1.08,1.11a19.29,19.29,0,0,0-1.86-1.37c-4,.41-9.29.75-15.85,1l-.31-1.39a1.87,1.87,0,0,0,.75-.18,27.89,27.89,0,0,0,3.07-2h-6.43V111ZM281.49,101V99.88h4.8V98.8h-3.9V97.59h3.9v-1h1.6v1h3.85V98.8h-3.85v1.08h4.78V101h-2.74v.72c0,.26.15.39.49.39h2.07v.9h-2.56c-.83,0-1.24-.26-1.24-.75V101h-2.84a6.69,6.69,0,0,1-4,3l-.54-1.06a5.86,5.86,0,0,0,3.3-1.91Zm5.42-7.28V92.45h1.73v1.32h3.07v1.5h-3.07v1.08h-1.73V95.26h-5.58v-1.5Zm-.57,10.09v-1.45h1.5v1.45H291v1h-3.15v1.21l4.05-.15v1.14c-3,.15-6.4.31-10.25.41l-.16-1.21c1.7-.05,3.33-.08,4.85-.13v-1.26h-3.2v-1Zm15.08,4.65v1.21h-18v-1.21Zm-15.23,6c4.67-.18,8.62-.41,11.85-.67-.62-.36-1.27-.72-1.91-1.06l.46-.44h-7.12A32.41,32.41,0,0,1,286.18,114.47Zm14.74-7.23a2.83,2.83,0,0,1-.83-1.47,12.18,12.18,0,0,1-.26-2.74c0-1,0-2.12.1-3.38h-2.32a12.64,12.64,0,0,1-.67,3.87,18,18,0,0,1,2.22,1.81l-1.08,1.06a19,19,0,0,0-1.73-1.55,8.38,8.38,0,0,1-2.63,2.92l-1.19-1.06a7.31,7.31,0,0,0,2.56-2.79,23.18,23.18,0,0,0-2.22-1.26l.85-1a13.13,13.13,0,0,1,1.88,1,11,11,0,0,0,.46-3h-2.84V98.21h2.84v-1.5h1.55v1.5h3.92c-.15,1.73-.23,3.36-.23,4.85a11.12,11.12,0,0,0,.16,2.09c.16.52.31.77.52.83s.49-.31.65-.77a13.38,13.38,0,0,0,.33-2l1.29.57a8,8,0,0,1-1,3.28,1.66,1.66,0,0,1-1.19.67A1.85,1.85,0,0,1,300.93,107.24Zm-3-14.79v1.32h5.55v1.5h-5.55v1.08H296.2V95.26h-3.1v-1.5h3.1V92.45Z" transform="translate(-227.94 -8.05)" style="fill:#b99959"/><path d="M311.67,107.89a25.39,25.39,0,0,1-3.18,7.49l-1.6-1a22,22,0,0,0,3-6.84Zm15.1-14.46v11.93H310.61V93.43Zm-9,5.14V95.18h-5.34v3.38Zm0,1.65h-5.34v3.36h5.34Zm-1.91,15.57c-1.76,0-2.63-.93-2.63-2.74v-5.58h1.83v5.16a1.23,1.23,0,0,0,1.39,1.39h5.71a1.38,1.38,0,0,0,1.19-.46,7.14,7.14,0,0,0,.59-3.12l1.78.59c-.16,2.27-.52,3.64-1.06,4.13a3.2,3.2,0,0,1-2.17.62Zm5.89-5-1.7.75a31.16,31.16,0,0,0-2.61-4.72l1.68-.54A27.94,27.94,0,0,1,321.76,110.78Zm-2.22-12.21h5.4V95.18h-5.4Zm5.4,1.65h-5.4v3.36h5.4Zm5.5,13.45-1.68.78a42,42,0,0,0-3.85-7l1.76-.57A42.1,42.1,0,0,1,330.44,113.67Z" transform="translate(-227.94 -8.05)" style="fill:#b99959"/><path d="M339.94,110.93h-4V113h-1.68V94.75h5.71Zm-1.63-1.58v-13h-2.4v13Zm6.22-17V96h3.92c0,8.47-.13,13.68-.36,15.7-.21,2.71-1.24,4.08-3,4.08-.26,0-.7-.05-1.26-.1l-.44-1.68c.57.05,1,.08,1.45.08,1,0,1.52-1.06,1.68-3.12.16-1.45.26-5.83.31-13.19h-2.25v2.53q-.08,10.77-4.18,15.78L339,114.91q3.76-4.57,3.79-14.59V97.79H341V96h1.81V92.4ZM356,115.55h-1.7v-1.37h-2.56v1.42h-1.65V95.13H356Zm-1.7-3V96.79h-2.56v15.78Z" transform="translate(-227.94 -8.05)" style="fill:#fff"/><path d="M366.71,113.49h-1.78v-1.57h-2.58v2.19h-1.78V94.57h6.14Zm-1.78-3.33V96.32h-2.58v13.84Zm7.31-13.55V92.47H374V105.1c-.08,5-1.63,8.73-4.62,11L368,114.94a9.77,9.77,0,0,0,3.41-4.62,29.91,29.91,0,0,1-3.74.75l-.26-1.73a24.2,24.2,0,0,0,4.52-.75,20.93,20.93,0,0,0,.36-3.49v-.83h-3.8v-1.7h3.8V98.28h-4.36V96.6Zm6.22-4.13V96.6h4.6v1.68h-4.6v4.29h3.9v1.7h-3.9v4.47h4.78v1.7h-4.78v5.68h-1.78V92.47Z" transform="translate(-227.94 -8.05)" style="fill:#fff"/><path d="M408.8,99.73h-1.68v5.94h-8V108h8.75v8.16h-1.76V115h-7v1.11h-1.73V99.73h-1.47V97.95l-.64.67c-1.42-1.73-2.66-3.1-3.69-4.13-.67,1-1.37,1.88-2.09,2.76h4.29V98.8H389v-1c-.67.72-1.34,1.45-2.07,2.14l-1-1.42a32.12,32.12,0,0,0,4.67-5.68h1.65q1.9,1.86,3.64,3.87V95.06h5.55a18.75,18.75,0,0,0-1-2.27l1.81-.28a26,26,0,0,1,.9,2.56h5.63Zm-12.68,15.18-1.52.7c-.21-.62-.41-1.16-.59-1.68a50.1,50.1,0,0,1-6.56,2.17l-.52-1.47a.77.77,0,0,0,.52-.75V100.5h7.64v9.29H389.2V114q2.36-.77,4.18-1.55-.43-1-.85-1.78l1.55-.52A33.23,33.23,0,0,1,396.12,114.91Zm-2.79-12.7H389.2v2.17h4.13Zm-4.13,5.89h4.13V105.9H389.2Zm17.87-8.91V96.76h-9.4v2.43Zm-1.7,4.91v-3.28h-6.25v3.28Zm-6.25,9.29h7v-3.72h-7Z" transform="translate(-227.94 -8.05)" style="fill:#fff"/></svg>