<?xml version="1.0" encoding="utf-8"?>
<!-- Generator: Adobe Illustrator 21.1.0, SVG Export Plug-In . SVG Version: 6.00 Build 0)  -->
<svg version="1.1" id="Layer_1" xmlns="http://www.w3.org/2000/svg" xmlns:xlink="http://www.w3.org/1999/xlink" x="0px" y="0px"
	 viewBox="0 0 459.3 459.3" style="enable-background:new 0 0 459.3 459.3;" xml:space="preserve">
<style type="text/css">
	.st0{fill:#FFFFFF;}
</style>
<g>
	<g>
		<g>
			<path class="st0" d="M175.2,404.5c0,0.1,0,0.2,0,0.4c0,30.1,24.4,54.5,54.5,54.5s54.5-24.4,54.5-54.5c0-0.1,0-0.2,0-0.4H175.2z"
				/>
			<path class="st0" d="M403.5,336.4l-49-72c0-22,0-75.9,0-89.8c0-60.6-43.1-111.1-100.4-122.5V24.5c0-13.5-11-24.5-24.5-24.5
				s-24.5,11-24.5,24.5v27.7C147.9,63.5,104.8,114,104.8,174.6c0,23.7,0,76.1,0,89.8l-49,72c-5.2,7.6-5.7,17.4-1.4,25.5
				s12.7,13.2,21.9,13.2h306.8c9.2,0,17.6-5.1,21.9-13.2C409.3,353.8,408.7,344,403.5,336.4z"/>
		</g>
	</g>
</g>
</svg>
